<?xml version="1.0" encoding="UTF-8" standalone="no"?><svg width="170" height="162" viewBox="0 0 170 162" fill="none" xmlns="http://www.w3.org/2000/svg">
<path d="M150.5 80.9408C150.5 115.245 121.246 143.181 85 143.181C48.754 143.181 19.5 115.245 19.5 80.9408C19.5 46.6363 48.754 18.7009 85 18.7009C121.246 18.7009 150.5 46.6363 150.5 80.9408Z" fill="black" stroke="white" stroke-width="3"/>
<path d="M167.5 80.9409C167.5 124.104 130.682 159.305 85 159.305C39.3175 159.305 2.5 124.104 2.5 80.9409C2.5 37.7777 39.3175 2.5769 85 2.5769C130.682 2.5769 167.5 37.7777 167.5 80.9409Z" stroke="#FF0921" stroke-width="5"/>
<g clip-path="url(#clip0_1394_1432)">
<g clip-path="url(#clip1_1394_1432)">
<path d="M121 89H113V97H115.8C116.463 97 117 97.45 117 98V100C117 100.55 116.463 101 115.8 101H54.2C53.5375 101 53 100.55 53 100V98C53 97.45 53.5375 97 54.2 97H57V89H49C46.7875 89 45 90.7875 45 93V105C45 107.213 46.7875 109 49 109H121C123.213 109 125 107.213 125 105V93C125 90.7875 123.213 89 121 89ZM109 97V57.0375C109 54.8 107.188 53 104.963 53H65.05C62.8125 53 61 54.8125 61 57.0375V97H109ZM71.4 74.25L74.5875 71.0875C75.1125 70.5625 75.9625 70.5625 76.4875 71.1L81.65 76.3L93.55 64.5C94.075 63.975 94.925 63.975 95.45 64.5125L98.6125 67.7C99.1375 68.225 99.1375 69.075 98.6 69.6L82.5625 85.5C82.0375 86.025 81.1875 86.025 80.6625 85.4875L71.4 76.15C70.8625 75.625 70.875 74.775 71.4 74.25Z" fill="white"/>
</g>
</g>
<defs>
<clipPath id="clip0_1394_1432">
<rect width="80" height="76.1073" fill="white" transform="translate(45 42.8872)"/>
</clipPath>
<clipPath id="clip1_1394_1432">
<rect width="80" height="80" fill="white" transform="translate(45 41)"/>
</clipPath>
</defs>
</svg>
