<?xml version="1.0" encoding="UTF-8" standalone="no"?><svg width="170" height="163" viewBox="0 0 170 163" fill="none" xmlns="http://www.w3.org/2000/svg">
<path d="M150.5 81.8541C150.5 116.159 121.246 144.094 85 144.094C48.754 144.094 19.5 116.159 19.5 81.8541C19.5 47.5496 48.754 19.6143 85 19.6143C121.246 19.6143 150.5 47.5496 150.5 81.8541Z" fill="black" stroke="white" stroke-width="3"/>
<path d="M167.5 81.854C167.5 125.017 130.682 160.218 85 160.218C39.3175 160.218 2.5 125.017 2.5 81.854C2.5 38.6908 39.3175 3.48999 85 3.48999C130.682 3.48999 167.5 38.6908 167.5 81.854Z" stroke="#FF0921" stroke-width="5"/>
<g clip-path="url(#clip0_1394_1422)">
<path d="M118.35 87.8421L124.916 60.3589C125.39 58.3745 123.804 56.4849 121.665 56.4849H67.1122L65.8392 50.5642C65.5219 49.0884 64.1569 48.0286 62.5735 48.0286H48.3333C46.4924 48.0286 45 49.4483 45 51.1997V53.3138C45 55.0652 46.4924 56.4849 48.3333 56.4849H58.0393L67.796 101.863C65.4618 103.14 63.8889 105.535 63.8889 108.28C63.8889 112.367 67.3711 115.68 71.6667 115.68C75.9622 115.68 79.4444 112.367 79.4444 108.28C79.4444 106.209 78.549 104.338 77.1078 102.995H106.225C104.784 104.338 103.889 106.209 103.889 108.28C103.889 112.367 107.371 115.68 111.667 115.68C115.962 115.68 119.444 112.367 119.444 108.28C119.444 105.351 117.654 102.819 115.058 101.62L115.825 98.4125C116.299 96.4282 114.713 94.5386 112.574 94.5386H75.294L74.385 90.3104H115.1C116.656 90.3104 118.005 89.2859 118.35 87.8421Z" fill="white"/>
</g>
<defs>
<clipPath id="clip0_1394_1422">
<rect width="80" height="76.1073" fill="white" transform="translate(45 43.8004)"/>
</clipPath>
</defs>
</svg>
