<?xml version="1.0" encoding="UTF-8" standalone="no"?><svg width="170" height="162" viewBox="0 0 170 162" fill="none" xmlns="http://www.w3.org/2000/svg">
<path d="M150.5 80.864C150.5 115.169 121.246 143.104 85 143.104C48.754 143.104 19.5 115.169 19.5 80.864C19.5 46.5595 48.754 18.6241 85 18.6241C121.246 18.6241 150.5 46.5595 150.5 80.864Z" fill="black" stroke="white" stroke-width="3"/>
<path d="M167.5 80.864C167.5 124.027 130.682 159.228 85 159.228C39.3175 159.228 2.5 124.027 2.5 80.864C2.5 37.7008 39.3175 2.5 85 2.5C130.682 2.5 167.5 37.7008 167.5 80.864Z" stroke="#FF0921" stroke-width="5"/>
<g clip-path="url(#clip0_1394_1412)">
<path d="M70.175 96.7142C68.8172 95.4224 69.525 95.7866 66.25 94.9527C64.7641 94.5737 63.4578 93.8453 62.2766 92.9727L55.1875 109.508C54.5016 111.109 55.7828 112.848 57.5984 112.783L65.8313 112.484L71.4938 118.174C72.7438 119.429 74.9375 119.038 75.6234 117.437L83.7563 98.4667C82.0625 99.3646 80.1828 99.8908 78.2391 99.8908C75.1922 99.8908 72.3297 98.7625 70.175 96.7142ZM114.813 109.508L107.723 92.9727C106.542 93.8468 105.236 94.5737 103.75 94.9527C100.458 95.7911 101.18 95.4254 99.825 96.7142C97.6703 98.7625 94.8063 99.8908 91.7594 99.8908C89.8156 99.8908 87.9359 99.3631 86.2422 98.4667L94.375 117.437C95.0609 119.038 97.2563 119.429 98.5047 118.174L104.169 112.484L112.402 112.783C114.217 112.848 115.498 111.108 114.813 109.508ZM96.0938 93.3503C98.4813 91.0388 98.7547 91.238 102.155 90.3565C104.325 89.7932 106.022 88.1506 106.603 86.0487C107.772 81.8272 107.469 82.337 110.658 79.2481C112.247 77.7096 112.867 75.4666 112.286 73.3647C111.119 69.1461 111.117 69.7347 112.286 65.5117C112.867 63.4098 112.247 61.1667 110.658 59.6282C107.469 56.5393 107.772 57.0477 106.603 52.8276C106.022 50.7257 104.325 49.0832 102.155 48.5198C97.7984 47.3886 98.3234 47.6844 95.1313 44.594C93.5422 43.0555 91.225 42.4535 89.0547 43.0169C84.7 44.1466 85.3078 44.1481 80.9453 43.0169C78.775 42.4535 76.4578 43.0541 74.8688 44.594C71.6797 47.6829 72.2047 47.3886 67.8469 48.5198C65.6766 49.0832 63.9797 50.7257 63.3984 52.8276C62.2313 57.0477 62.5328 56.5393 59.3438 59.6282C57.7547 61.1667 57.1328 63.4098 57.7156 65.5117C58.8828 69.7273 58.8844 69.1387 57.7156 73.3632C57.1344 75.4651 57.7547 77.7082 59.3438 79.2481C62.5328 82.337 62.2297 81.8272 63.3984 86.0487C63.9797 88.1506 65.6766 89.7932 67.8469 90.3565C71.3438 91.2633 71.6047 91.1206 73.9063 93.3503C75.9734 95.3526 79.1938 95.7108 81.6781 94.2154C82.6716 93.6154 83.824 93.2968 85.0008 93.2968C86.1775 93.2968 87.33 93.6154 88.3234 94.2154C90.8063 95.7108 94.0266 95.3526 96.0938 93.3503ZM70.2594 68.9662C70.2594 61.0835 76.8594 54.6931 85 54.6931C93.1406 54.6931 99.7406 61.0835 99.7406 68.9662C99.7406 76.849 93.1406 83.2393 85 83.2393C76.8594 83.2393 70.2594 76.849 70.2594 68.9662Z" fill="white"/>
</g>
<defs>
<clipPath id="clip0_1394_1412">
<rect width="80" height="76.1073" fill="white" transform="translate(45 42.8103)"/>
</clipPath>
</defs>
</svg>
