<?xml version="1.0" encoding="UTF-8" standalone="no"?><svg width="170" height="163" viewBox="0 0 170 163" fill="none" xmlns="http://www.w3.org/2000/svg">
<path d="M150.5 81.733C150.5 116.038 121.246 143.973 85 143.973C48.754 143.973 19.5 116.038 19.5 81.733C19.5 47.4285 48.754 19.4932 85 19.4932C121.246 19.4932 150.5 47.4285 150.5 81.733Z" fill="black" stroke="white" stroke-width="3"/>
<path d="M167.5 81.7329C167.5 124.896 130.682 160.097 85 160.097C39.3175 160.097 2.5 124.896 2.5 81.7329C2.5 38.5697 39.3175 3.3689 85 3.3689C130.682 3.3689 167.5 38.5697 167.5 81.7329Z" stroke="#FF0921" stroke-width="5"/>
<g clip-path="url(#clip0_1394_1443)">
<path d="M115 73.1709H105V67.5401C110.812 65.575 115 60.3486 115 54.144H105V49.3873C105 46.7607 102.761 44.6306 100 44.6306H70C67.2391 44.6306 65 46.7607 65 49.3873V54.144H55C55 60.3486 59.1875 65.575 65 67.5401V73.1709H55C55 79.3754 59.1875 84.6018 65 86.5669V92.1977H55C55 98.5657 59.4141 103.895 65.4672 105.732C67.4094 114.304 75.4062 120.738 85 120.738C94.5938 120.738 102.591 114.304 104.533 105.732C110.586 103.895 115 98.5657 115 92.1977H105V86.5669C110.812 84.6018 115 79.3754 115 73.1709ZM85 106.468C80.8578 106.468 77.5 103.273 77.5 99.3328C77.5 95.3921 80.8578 92.1977 85 92.1977C89.1422 92.1977 92.5 95.3921 92.5 99.3328C92.5 103.273 89.1422 106.468 85 106.468ZM85 87.441C80.8578 87.441 77.5 84.2466 77.5 80.3059C77.5 76.3653 80.8578 73.1709 85 73.1709C89.1422 73.1709 92.5 76.3653 92.5 80.3059C92.5 84.2466 89.1422 87.441 85 87.441ZM85 68.4142C80.8578 68.4142 77.5 65.2197 77.5 61.2791C77.5 57.3385 80.8578 54.144 85 54.144C89.1422 54.144 92.5 57.3385 92.5 61.2791C92.5 65.2197 89.1422 68.4142 85 68.4142Z" fill="white"/>
</g>
<defs>
<clipPath id="clip0_1394_1443">
<rect width="80" height="76.1073" fill="white" transform="translate(45 44.6306)"/>
</clipPath>
</defs>
</svg>
