<?xml version="1.0" encoding="UTF-8" standalone="no"?><svg width="170" height="162" viewBox="0 0 170 162" fill="none" xmlns="http://www.w3.org/2000/svg">
<path d="M150.5 80.864C150.5 115.169 121.246 143.104 85 143.104C48.754 143.104 19.5 115.169 19.5 80.864C19.5 46.5595 48.754 18.6241 85 18.6241C121.246 18.6241 150.5 46.5595 150.5 80.864Z" fill="black" stroke="white" stroke-width="3"/>
<path d="M167.5 80.864C167.5 124.027 130.682 159.228 85 159.228C39.3175 159.228 2.5 124.027 2.5 80.864C2.5 37.7008 39.3175 2.5 85 2.5C130.682 2.5 167.5 37.7008 167.5 80.864Z" stroke="#FF0921" stroke-width="5"/>
<g clip-path="url(#clip0_1394_1398)">
<path d="M105.009 80.864H65.0001C61.7025 80.8636 58.4559 81.6388 55.5494 83.1208C52.643 84.6027 50.1667 86.7454 48.3413 89.358C46.5158 91.9706 45.3977 94.9721 45.0865 98.0952C44.7753 101.218 45.2806 104.366 46.5576 107.259C47.8345 110.151 49.8434 112.698 52.4054 114.673C54.9674 116.648 58.003 117.99 61.2419 118.579C64.4809 119.168 67.8227 118.986 70.9698 118.049C74.1169 117.113 76.9717 115.45 79.2801 113.21H90.7201C93.0281 115.45 95.8825 117.112 99.0293 118.049C102.176 118.986 105.517 119.168 108.756 118.58C111.995 117.991 115.03 116.65 117.592 114.675C120.154 112.701 122.163 110.154 123.441 107.262C124.718 104.371 125.224 101.223 124.914 98.1004C124.604 94.9775 123.487 91.9761 121.662 89.3632C119.838 86.7503 117.363 84.6071 114.457 83.1242C111.552 81.6414 108.306 80.8649 105.009 80.864ZM76.0001 101.318C76.0001 101.696 75.842 102.059 75.5607 102.327C75.2794 102.595 74.8979 102.745 74.5001 102.745H68.0001V108.929C68.0001 109.307 67.842 109.67 67.5607 109.938C67.2794 110.205 66.8979 110.356 66.5001 110.356H63.5001C63.1022 110.356 62.7207 110.205 62.4394 109.938C62.1581 109.67 62.0001 109.307 62.0001 108.929V102.745H55.5001C55.1022 102.745 54.7207 102.595 54.4394 102.327C54.1581 102.059 54.0001 101.696 54.0001 101.318V98.4638C54.0001 98.0854 54.1581 97.7224 54.4394 97.4548C54.7207 97.1872 55.1022 97.0368 55.5001 97.0368H62.0001V90.8531C62.0001 90.4746 62.1581 90.1117 62.4394 89.8441C62.7207 89.5764 63.1022 89.4261 63.5001 89.4261H66.5001C66.8979 89.4261 67.2794 89.5764 67.5607 89.8441C67.842 90.1117 68.0001 90.4746 68.0001 90.8531V97.0368H74.5001C74.8979 97.0368 75.2794 97.1872 75.5607 97.4548C75.842 97.7224 76.0001 98.0854 76.0001 98.4638V101.318ZM103 110.356C102.011 110.356 101.044 110.077 100.222 109.554C99.4 109.031 98.7591 108.288 98.3807 107.419C98.0022 106.55 97.9032 105.594 98.0961 104.671C98.2891 103.748 98.7653 102.901 99.4645 102.235C100.164 101.57 101.055 101.117 102.025 100.934C102.995 100.75 104 100.844 104.913 101.204C105.827 101.564 106.608 102.174 107.157 102.956C107.707 103.738 108 104.658 108 105.599C108 106.86 107.473 108.07 106.536 108.962C105.598 109.854 104.326 110.356 103 110.356ZM111 98.9395C110.011 98.9395 109.044 98.6605 108.222 98.1379C107.4 97.6152 106.759 96.8723 106.381 96.0031C106.002 95.1339 105.903 94.1775 106.096 93.2548C106.289 92.3321 106.765 91.4845 107.465 90.8193C108.164 90.1541 109.055 89.701 110.025 89.5175C110.995 89.3339 112 89.4281 112.913 89.7882C113.827 90.1482 114.608 90.7579 115.157 91.5401C115.707 92.3223 116 93.242 116 94.1828C116 95.4444 115.473 96.6542 114.536 97.5463C113.598 98.4384 112.326 98.9395 111 98.9395Z" fill="white"/>
</g>
<g clip-path="url(#clip1_1394_1398)">
<path d="M97.8203 59.6261L91.4921 57.8646C90.7597 57.6639 90.2499 57.0117 90.2499 56.2871C90.2499 55.3785 91.0234 54.6427 91.9785 54.6427H95.8632C96.5781 54.6427 97.2812 54.8489 97.8671 55.228C98.2246 55.4565 98.705 55.4008 99.0097 55.1165L101.049 53.2212C101.465 52.8366 101.406 52.1956 100.943 51.8555C99.5078 50.7853 97.7148 50.1888 95.8749 50.1833V47.5076C95.8749 47.0171 95.4531 46.6157 94.9374 46.6157H93.0624C92.5468 46.6157 92.1249 47.0171 92.1249 47.5076V50.1833H91.9785C88.246 50.1833 85.246 53.2324 85.5917 56.8501C85.8378 59.4198 87.9003 61.5102 90.5019 62.2348L96.5078 63.9071C97.2402 64.1133 97.7499 64.76 97.7499 65.4846C97.7499 66.3932 96.9765 67.129 96.0214 67.129H92.1367C91.4218 67.129 90.7187 66.9228 90.1328 66.5437C89.7753 66.3152 89.2949 66.3709 88.9902 66.6552L86.9511 68.5505C86.5351 68.9351 86.5937 69.5761 87.0566 69.9162C88.4921 70.9864 90.2851 71.5829 92.1249 71.5884V74.2641C92.1249 74.7546 92.5468 75.156 93.0624 75.156H94.9374C95.4531 75.156 95.8749 74.7546 95.8749 74.2641V71.5773C98.6054 71.5271 101.166 69.983 102.068 67.5248C103.328 64.091 101.213 60.5681 97.8203 59.6261Z" fill="white"/>
</g>
<g clip-path="url(#clip2_1394_1398)">
<path d="M76.6836 37.4795L71.4102 36.0116C70.7999 35.8444 70.3751 35.3009 70.3751 34.697C70.3751 33.9399 71.0196 33.3267 71.8155 33.3267H75.0528C75.6485 33.3267 76.2344 33.4986 76.7227 33.8144C77.0206 34.0049 77.421 33.9584 77.6749 33.7215L79.3741 32.1422C79.7208 31.8216 79.6719 31.2874 79.2862 31.0041C78.0899 30.1122 76.5958 29.6152 75.0626 29.6105V27.3808C75.0626 26.972 74.711 26.6376 74.2813 26.6376H72.7188C72.2891 26.6376 71.9376 26.972 71.9376 27.3808V29.6105H71.8155C68.7051 29.6105 66.2051 32.1515 66.4932 35.1662C66.6983 37.3076 68.417 39.0496 70.585 39.6535L75.5899 41.0471C76.2002 41.2189 76.6251 41.7578 76.6251 42.3617C76.6251 43.1188 75.9805 43.732 75.1846 43.732H71.9473C71.3516 43.732 70.7657 43.5601 70.2774 43.2442C69.9795 43.0538 69.5792 43.1002 69.3252 43.3371L67.626 44.9165C67.2793 45.237 67.3282 45.7712 67.7139 46.0546C68.9102 46.9465 70.4043 47.4435 71.9376 47.4482V49.6779C71.9376 50.0867 72.2891 50.4211 72.7188 50.4211H74.2813C74.711 50.4211 75.0626 50.0867 75.0626 49.6779V47.4389C77.3379 47.3971 79.4717 46.1103 80.2237 44.0618C81.2735 41.2003 79.5108 38.2646 76.6836 37.4795Z" fill="white"/>
</g>
<defs>
<clipPath id="clip0_1394_1398">
<rect width="80" height="76.1073" fill="white" transform="translate(45 61.8372)"/>
</clipPath>
<clipPath id="clip1_1394_1398">
<rect width="30" height="28.5402" fill="white" transform="translate(79 46.6157)"/>
</clipPath>
<clipPath id="clip2_1394_1398">
<rect width="25" height="23.7835" fill="white" transform="translate(61 26.6376)"/>
</clipPath>
</defs>
</svg>
